Patient4_TMGait_0pt7_02_left_19_EMG.mot
version=1
nRows=29
nColumns=33
inDegrees=no
endheader
time	1LAddLong	2LGlutMax	3LGlutMed	4LIliopsoas	5LSemiMemb	6LBicFemLong	7LRecFem	8LVastMed	9LVastLat	10LGasMed	11LTibAnt	12lTibPost	13LPeroneusLong	14LSol	15LExtDigLong	16LFlexDigLong	17RAddLong	18RGlutMax	19RGlutMed	20RIliopsoas	21RSemiMemb	22RBicFemLong	23RRecFem	24RVastMed	25RVastLat	26RGasMed	27RTibAnt	28RTibPost	29RPeroneusLong	30RSol	31RExtDigLong	32RFlexDigLong
22.715	0.014038	0.073395	-0.10315	0.005493	0.019226	0.022888	-0.024872	0.009918	0.028839	-0.032349	0.064087	-0.007629	0.088501	-0.076752	0.13641	0.008698	-0.004425	-0.22553	-0.1088	0.071411	0.070038	0.033875	-0.22537	-0.31509	-0.16296	-0.014343	-1.0576	0.001831	-0.12466	-0.17853	0	-0.01709
22.716	0.017395	0.075531	-0.1004	-0.007782	0.016785	0.029907	-0.03067	-0.000916	0.034027	-0.037994	0.25299	-0.003662	0.084534	-0.069427	0.080872	0.003204	-0.011444	-0.20325	0.34882	0.21423	0.001068	0.072327	-0.42145	-0.16312	-0.013428	-0.014954	-0.57617	-0.001984	-0.42145	-0.14008	0.001221	-0.019226
22.717	0.019531	0.041809	-0.067902	0.022125	0.010529	0.031891	-0.029144	0.011902	0.032043	-0.067749	0.088196	-0.006409	0.1236	-0.061646	-0.015411	0.003967	-0.02182	-0.24094	0.21042	0.17624	0.00946	0.03418	-0.47836	-0.067291	0.098724	0.001221	-0.1091	-0.001373	0.15289	-0.19134	-0.000153	-0.015259
22.718	0.017395	0.032349	-0.092773	-0.005798	0.005798	0.014343	-0.032043	0.001068	0.024719	-0.064392	-0.001221	-0.007782	0.11566	-0.063934	-0.058899	-0.000305	0.002441	-0.224	0.041199	0.068054	-0.10712	0.039978	-0.083923	0.08194	0.20447	-0.006561	0.3772	-0.000305	0.059509	-0.23956	-0.001373	-0.020905
22.719	0.012817	0.025024	-0.10361	0.016937	-0.013275	-0.005493	-0.044861	0.006256	0.026398	-0.061951	0.032349	-0.002289	0.092621	-0.072632	-0.054779	0.004578	0.005035	-0.2034	-0.3389	-0.032196	-0.10773	0.00824	0.11459	0.18539	0.33081	-0.0177	0.85846	-0.001373	-0.22659	-0.29419	0.003357	-0.020447
22.72	0.010071	0.033875	-0.00351	-0.00061	-0.01358	0.003357	-0.026703	0.002747	0.029297	-0.053864	-0.008698	0.010376	0.080261	-0.096588	-0.065613	0.002899	0.030823	-0.18814	-0.24674	-0.011749	-0.22842	-0.041199	0.17822	0.17044	0.23438	-0.014038	0.24704	-0.003967	-0.36957	-0.21179	-0.003204	-0.016632
22.721	0.000763	-0.031433	0.048676	0.007782	-0.022888	0.0177	-0.038757	0.003052	0.023651	-0.052338	-0.054169	0.005646	0.063019	-0.10696	-0.063934	0.004425	0.018158	-0.18753	0.031586	0.045776	-0.25146	-0.040894	0.072784	0.35919	0.23636	0.006866	0.42816	-0.001831	-0.20065	-0.1561	-0.005188	-0.007629
22.722	-0.002136	-0.039978	0.051117	-0.014648	-0.028839	0.011292	-0.025482	0.00946	0.016174	-0.062408	-0.015564	0.000916	0.027466	-0.094604	-0.037994	0.006561	0.007019	-0.23743	0.076599	0.10025	-0.035706	-0.032806	-0.027313	0.32059	0.21286	0.019836	0.013123	0.001526	0.088806	-0.098114	-0.005188	0.003662
22.723	-0.003815	-0.009155	-0.037231	0.013123	-0.044098	0.019073	-0.043793	0.003815	0.028534	-0.066986	-0.014343	-0.001221	0.012512	-0.09491	-0.013733	0.002441	0.001678	-0.13596	-0.28305	0.12787	0.2533	-0.000305	-0.079193	0.094757	0.066071	0.007324	-0.72601	-0.001526	0.19608	-0.014496	-0.003662	-0.000458
22.724	0.001068	-0.02655	-0.067902	0.013885	-0.031281	0.035706	-0.040283	0.008545	0.031891	-0.071106	-0.02182	-0.008392	0.050049	-0.088043	0.018616	0.001068	0.02243	-0.10132	-0.40878	0.066681	0.16953	-0.033875	0.04837	-0.042572	-0.095673	0.004272	-0.8992	0.00061	0.36468	-0.11185	-0.001678	-0.007782
22.725	0.005646	-0.042572	-0.081024	0.004272	0.019684	0.000916	-0.058289	0.008545	0.023651	-0.032806	-0.008392	0.001221	0.056152	-0.066071	0.045929	0.009003	0.009918	-0.061951	-0.14526	-0.019684	0.05127	-0.020447	0.064087	-0.014191	-0.18005	0.005035	-0.43961	-0.00351	0.31555	-0.031433	-0.002747	-0.011292
22.726	0.006561	-0.014038	-0.026093	0.005646	0.007019	-0.006561	-0.072327	0.001068	0.030212	0.013123	0.001526	-0.002441	0.083466	-0.053711	0.046082	0.006714	-0.011902	-0.10071	0.16937	-0.055847	-0.047607	0.030823	-0.04837	0.051727	-0.10117	0.000153	0.35248	-0.002747	0.020142	0.16953	-0.000305	-0.007935
22.727	0.013275	-0.019531	0.00946	-0.006256	-0.014496	-0.012054	-0.041809	-0.000458	0.019226	0.028076	0.002747	-0.002136	0.12543	-0.059052	0.06134	-0.006256	-0.012665	-0.089417	-0.044403	-0.058899	-0.0383	-0.006409	-0.10193	0.057373	0.012207	-0.011292	0.59906	-0.006256	-0.069275	0.4039	-0.004883	-0.004578
22.728	0.018768	-0.012817	0.022278	0.003662	-0.034637	-0.019226	-0.062714	0.013733	0.02182	-0.020142	0.00351	-0.00061	0.086365	-0.049438	0.059204	0.000763	-0.005798	-0.047913	0.26413	-0.18295	-0.050659	-0.009613	-0.046692	0.020294	0.12863	-0.012207	0.47195	-0.00351	-0.063934	0.45029	-0.001831	-0.005951
22.729	0.013123	-0.018463	0.04303	0.009155	0.011139	-0.035095	-0.067291	0.005035	0.015869	-0.033569	0.015259	-0.001984	0.041962	-0.036011	0.040283	-0.003204	0.003662	-0.061493	0.81955	-0.41351	-0.053253	-0.010376	-0.019226	0.005341	0.30701	-0.020599	-0.070496	0.004272	-0.007935	0.62546	-0.00412	-0.006866
22.73	0.007782	-0.054016	-0.035706	0.012054	0.04425	-0.026093	-0.070648	0.014496	0.013275	-0.063171	-0.023804	0.001984	0.05188	-0.058594	0.047607	-0.004272	0.005035	-0.16617	0.14282	-0.35278	0.012054	-0.012817	0.17883	0.24445	0.27084	-0.018616	-0.23209	-0.003052	0.037689	0.54382	-0.001984	-0.006714
22.731	0.004425	-0.075531	-0.074615	0.011902	0.052185	-0.033875	-0.079193	0.010071	0.022583	-0.057526	0.001221	0.001526	0.039368	-0.054626	0.034332	0.003204	0.016022	-0.20447	-0.85281	-0.083466	0.078735	-0.049744	0.19562	0.17212	0.15839	-0.009918	-0.18982	0.000916	0.026093	0.15945	-0.000305	-0.013885
22.732	0.001373	-0.057831	-0.12116	0.025024	0.041046	-0.010071	-0.062256	0.003967	0.016632	-0.056915	0.001526	-0.001068	0.065765	-0.05249	0.04364	-0.002747	0.014954	-0.17456	-0.56564	0.19043	0.0383	-0.059204	0.13229	0.065308	0.029907	-0.005646	0.045471	-0.006561	-0.022125	0.058136	-0.002594	-0.005341
22.733	0.00824	-0.046844	-0.13458	-0.002747	0.031586	-0.004425	-0.083008	0.006409	0.022736	-0.0354	0.021973	0.000763	0.071716	-0.056152	0.036774	0.006256	0.009766	-0.11765	0.052795	0.25757	-0.001526	-0.041199	0.033875	0.026093	0.017242	-0.007629	0.10773	0.000153	0.00473	0.032043	-0.002594	-0.014648
22.734	0.014343	-0.069122	-0.070343	-0.012817	-0.001526	-0.044708	-0.090332	-0.003662	0.036316	-0.002899	0.021515	-0.001831	0.044556	-0.050201	0.019073	-0.003357	0.008087	-0.086823	0.31158	0.27741	0.007324	-0.035553	-0.081787	-0.048676	-0.034332	-0.016022	0.18829	-0.002289	-0.055542	-0.03891	-0.002747	-0.018158
22.735	0.021362	-0.1091	-0.069275	0	0.028381	-0.039063	-0.081635	0.002899	0.026093	0.006866	0.015717	0.002289	0.038452	-0.042877	0.021362	0.007324	0.008545	-0.11444	0.28732	0.19669	0.027466	-0.050964	-0.47501	-0.14389	0.028076	-0.014038	0.24857	0.000458	-0.15671	-0.059662	-0.001373	-0.019531
22.736	0.014191	-0.12589	0.03479	0.000305	0.061035	-0.020599	-0.077057	0.001678	0.017853	-0.019226	0.01236	0.003052	0.021667	-0.054321	0.018616	0.002594	0.011292	-0.17105	0.12299	0.075684	0.006104	-0.02533	-0.46341	-0.27741	-0.011902	-0.022125	0.40894	-0.005188	-0.1918	-0.10284	-0.003357	-0.026398
22.737	0.009003	-0.10178	-0.028687	-0.009155	0.004578	0.002136	-0.09201	0.002747	0.013428	-0.029449	0.011597	0.007629	0.017853	-0.057831	0.017395	0.006714	0.024414	-0.20905	-0.1738	-0.011139	-0.10925	0.006104	-0.077362	-0.11551	-0.015411	-0.007629	0.52002	-0.001526	-0.18921	-0.17425	-0.003662	-0.016785
22.738	0.004883	-0.077515	-0.067596	-0.00412	-0.017853	0.014038	-0.076752	0.01236	0.017242	-0.024872	0.013885	0.002441	0.016632	-0.064697	0.018005	-0.003815	0.028992	-0.12878	0.20737	0.018311	-0.11337	-0.054626	0.033722	-0.042877	0.030212	-0.007324	0.66422	0.000458	-0.25314	-0.10849	-0.006256	-0.013428
22.739	0.001526	-0.076294	-0.07431	-0.005341	-0.011902	0.039825	-0.091553	0.014191	0.022583	-0.043945	0.02243	-0.001373	0.019684	-0.055389	0.014191	0.012665	0.007324	-0.10483	0.018463	0.058746	-0.039215	-0.11337	-0.019836	-0.023041	-0.015106	0.001526	0.88547	-0.001373	-0.32501	0.091248	-0.005493	-0.009003
22.74	-0.002747	-0.09613	-0.12833	0.025024	-0.022583	0.034485	-0.089417	0.009766	0.032043	-0.047302	0.020599	-0.002899	-0.002289	-0.069427	0.008087	0.008698	0.00946	-0.11963	0.25497	0.011292	-0.008698	-0.088501	0.011902	-0.019226	-0.003204	-0.005341	0.53223	-0.000153	-0.28381	0.062408	-0.001068	-0.014038
22.741	-0.00946	-0.094147	-0.072021	0.015411	0.030823	-0.064087	-0.1004	0.007629	0.034943	-0.050659	0.013733	0.004425	-0.013428	-0.056152	0.018311	0.006561	0.001526	-0.14297	0.62515	-0.088501	-0.026703	-0.021973	0.022278	0.039215	0.059509	0.001831	0.065613	0	-0.2066	-0.019226	-0.00412	-0.016022
22.742	0.010529	-0.087433	-0.002747	0.024872	-0.020447	-0.11627	-0.096283	0.006714	0.04715	0.007019	0.014648	0.008392	0.00061	-0.046692	0.015106	0.001221	-0.000763	-0.16083	0.13611	-0.068512	-0.11597	0.012512	-0.010834	0.069275	0.060883	0.011139	-0.2359	-0.000153	-0.083771	-0.057983	-0.000916	-0.013123
22.743	0.018768	-0.11765	0.10605	0.00351	-0.072784	-0.11169	-0.11017	-0.002289	0.037689	0.023651	0.008392	0.003357	-0.003662	-0.059662	0.019379	-0.007324	-0.010071	-0.1889	-0.39139	-0.055389	-0.086975	0.10223	-0.11978	0.024414	0.10223	0.002594	-0.19745	0.001526	-0.066223	-0.089111	-0.007477	-0.001068
